<svg width="196" height="247" viewBox="0 0 196 247" fill="none" xmlns="http://www.w3.org/2000/svg">
<path fill-rule="evenodd" clip-rule="evenodd" d="M4.75 1.08009C2.034 2.66209 -0.130999 7.63009 0.610001 10.5821C0.969001 12.0121 3.021 15.2131 5.17 17.6971C14.375 28.3321 18 39.7791 18 58.2101V71.0001H12.434C1.16501 71.0001 0 73.4641 0 97.3051C0 106.858 0.298003 128.922 0.662003 146.337L1.323 178H33.606C65.786 178 65.897 178.007 68.544 180.284C72.228 183.453 72.244 189.21 68.579 192.877L65.957 195.5L33.479 195.801L1 196.103V204.551V213H24.577H48.154L51.077 215.923C55.007 219.853 55.007 224.147 51.077 228.077L48.154 231H26.469H4.783L5.41901 233.534C5.76901 234.927 7.143 238.527 8.472 241.534L10.89 247H40.945H71L71.006 241.75C71.017 230.748 76.027 221.606 84.697 216.767C97.854 209.424 114.086 213.895 121.323 226.857C123.659 231.041 124.418 233.833 124.789 239.607L125.263 247H155.187H185.11L187.528 241.534C188.857 238.527 190.231 234.927 190.581 233.534L191.217 231H169.531H147.846L144.923 228.077C142.928 226.082 142 224.152 142 222C142 219.848 142.928 217.918 144.923 215.923L147.846 213H171.423H195V204.551V196.103L162.521 195.801L130.043 195.5L127.421 192.877C123.991 189.445 123.835 183.869 127.074 180.421L129.349 178H162.013H194.677L195.338 146.337C195.702 128.922 196 106.858 196 97.3051C196 73.4641 194.835 71.0001 183.566 71.0001H178V58.2101C178 39.6501 181.397 28.7731 190.538 18.0651C195.631 12.0971 196.572 9.00809 194.511 5.02109C192.672 1.46509 190.197 9.12233e-05 186.028 9.12233e-05C179.761 9.12233e-05 168.713 14.8831 163.388 30.5001C160.975 37.5771 160.608 40.3751 160.213 54.7501L159.765 71.0001H150.732H141.7L142.286 53.2501C142.904 34.5511 144.727 24.3761 148.938 16.1211C151.823 10.4671 151.628 5.90109 148.364 2.63609C145 -0.726907 140.105 -0.887909 136.596 2.25009C133.481 5.03609 128.686 17.0811 126.507 27.5921C125.569 32.1191 124.617 43.0901 124.28 53.2501L123.69 71.0001H115.345H107V38.4231V5.84609L104.077 2.92309C102.082 0.928088 100.152 9.12233e-05 98 9.12233e-05C95.848 9.12233e-05 93.918 0.928088 91.923 2.92309L89 5.84609V38.4231V71.0001H80.655H72.31L71.72 53.2501C71.383 43.0901 70.431 32.1191 69.493 27.5921C67.314 17.0811 62.519 5.03609 59.404 2.25009C55.998 -0.795909 51.059 -0.710905 47.646 2.45209C44.221 5.62609 44.191 9.92109 47.539 17.4911C51.71 26.9241 53.007 34.4791 53.676 53.2501L54.31 71.0001H45.272H36.235L35.787 54.7501C35.392 40.3751 35.025 37.5771 32.612 30.5001C27.194 14.6091 16.228 -0.02891 9.787 0.03009C7.979 0.04709 5.712 0.519093 4.75 1.08009ZM42.687 108.974C33.431 112.591 20.036 125.024 18.408 131.512C17.476 135.223 20.677 140.453 28.253 147.599C37.495 156.319 44.191 159.471 53.5 159.485C59.317 159.494 61.645 158.953 67.274 156.289C77.634 151.385 88.987 139.161 88.996 132.9C89.004 127.304 76.787 114.707 66.745 109.956C59.16 106.368 50.285 106.006 42.687 108.974ZM129.255 109.904C119.151 114.768 106.996 127.33 107.004 132.9C107.013 139.108 118.562 151.475 128.939 156.389C134.338 158.945 136.744 159.496 142.521 159.498C152.526 159.501 160.369 155.502 169.771 145.605C180.444 134.368 180.278 130.975 168.486 119.388C160.043 111.094 152.727 107.595 143 107.201C136.364 106.933 134.78 107.244 129.255 109.904ZM48.5 125.922C46.3 126.969 43.152 128.945 41.505 130.314L38.511 132.802L40.504 135.005C41.601 136.216 44.434 138.342 46.8 139.728C52.577 143.114 57.36 142.466 64.009 137.395L68.978 133.606L66.756 131.24C60.944 125.054 54.357 123.135 48.5 125.922ZM138.386 125.063C136.674 125.571 133.375 127.677 131.057 129.743L126.841 133.5L131.901 137.343C138.65 142.468 143.407 143.124 149.2 139.728C151.566 138.342 154.351 136.269 155.389 135.122C157.684 132.587 156.742 131.097 150.58 127.511C145.438 124.519 142.329 123.895 138.386 125.063ZM91.923 162.923C89.043 165.804 89 166.008 89 176.973C89 184.805 89.435 188.941 90.47 190.941C92.356 194.589 96.918 196.273 101.03 194.84C105.82 193.17 107 189.638 107 176.973C107 166.008 106.957 165.804 104.077 162.923C102.082 160.928 100.152 160 98 160C95.848 160 93.918 160.928 91.923 162.923ZM94.5 232.155C91.026 234.055 90 236.229 90 241.691V247H98H106V242.082C106 235.732 105.37 234.242 101.928 232.463C98.591 230.737 97.197 230.679 94.5 232.155Z" fill="url(#paint0_linear_55_11)"/>
<defs>
<linearGradient id="paint0_linear_55_11" x1="98" y1="0.000244141" x2="98" y2="247" gradientUnits="userSpaceOnUse">
<stop stop-color="#03B79C"/>
<stop offset="0.504808" stop-color="#4EDAA4"/>
<stop offset="0.865285" stop-color="#84F3AA"/>
</linearGradient>
</defs>
</svg>
